<svg width="237" height="240" viewBox="0 0 237 240" fill="none" xmlns="http://www.w3.org/2000/svg">
<path d="M75.1 1.30001C63.8 3.70001 55.5 14 55.5 25.5C55.5 31.8 57.8 37.5 62.4 42.5L64.9 45.3L64.3 48.4C63.6 52.5 64 61.9 65.1 65.9C66.3 70.4 68.6 75.7 71.1 79.5C75.4 85.9 82.9 92.2 89.8 95.1L92.7 96.4L91.2 98.3C87.7 102.6 84.7 109.6 84 115.2C83.7 117.6 83.5 118.1 82.1 119C79.8 120.5 75.7 121.9 71.7 122.5C64.9 123.5 57.4 121 52 115.9C50.3 114.3 48.9 112.9 48.9 112.7C48.9 112.6 50 111.7 51.2 110.8C54.3 108.7 57 104.9 58.2 101.2C59 98.7 59.2 97.3 59 93.8C58.9 90 58.6 89.1 57.1 86C51.1 73.8 35.3 70.8 25.4 79.9C20.8 84.1 18.9 88.5 18.9 94.7C18.9 100.9 20.8 105.3 25.3 109.5C29 113 34 115 38.7 115H41.1L43.3 118C47.2 123.5 54.6 128.2 61.7 129.7C66.9 130.9 74.5 130.5 79.2 128.8C81.1 128.1 83 127.4 83.4 127.3C84 127.1 84.3 127.7 84.9 129.9C85.4 131.5 86.5 134.2 87.4 136.1L89.1 139.4L88.1 142.6C84.9 152.4 75.5 162.1 65.9 165.5C62 166.9 56.8 167.8 53 167.8H49.7L50 166.3C51.8 157.8 49.4 149.6 43.3 143.5C33.4 133.6 18.1 133.6 8.2 143.5C4.6 147.2 2.5 151.1 1.4 156.4C-1 168.5 6.7 181.1 19 184.7C22.4 185.7 29.3 185.7 32.6 184.7C37.5 183.3 42.4 180.1 44.9 176.7L46.3 174.9L52.3 175C59.1 175.2 63.8 174.4 69.5 172.2C79.6 168.3 88.1 160.5 93 150.8C94.1 148.6 95 146.7 95.1 146.7C95.1 146.6 96.5 147.4 98.1 148.6C103.2 152.2 108.7 154.5 114.2 155.2L116.6 155.5L118 158.6C119.9 162.7 120.4 165.1 120.4 169.9C120.4 176.6 118.3 182.2 114 187.1C110.7 190.9 110.7 190.9 107.2 187.5C100.5 181 91.8 179.5 83.4 183.6C75.5 187.4 70.7 196.7 72.1 205.3C73.6 214.3 80.6 221.3 89.6 222.8C97.9 224.2 107.1 219.6 111.1 212.1C112.8 208.9 113.9 203.6 113.5 200.3C113.2 197.7 113.2 197.7 114.9 196.6C117.7 194.7 122.4 189.3 124.1 186C127.1 180.3 127.9 176.7 127.9 169.8C127.9 164.9 127.7 163.1 126.8 160.5C125 154.9 124.9 155.4 128.2 154.7C129.8 154.3 133.1 153.1 135.5 151.9L139.8 149.7L142.1 150.5C153.3 154.5 161.9 163.4 165.5 175C166.6 178.5 167.2 186.3 166.7 189.8L166.4 191.9L163.3 190.8C148 185.5 131.9 195.8 130.2 212.1C129 223.6 136.8 235 148 238.4C160.8 242.2 175 234.7 179 221.9C180.4 217.6 180.4 211.1 179 206.9C178.1 203.9 175.2 198.9 173.7 197.7C173 197.2 173 196.9 173.7 194.2C174.7 190.2 174.6 180.2 173.7 175.8C170.7 162.5 161 150.3 149.2 145C147.8 144.3 146.4 143.7 146.4 143.6C146.3 143.5 147 142.4 147.9 141.2C151.2 136.7 153.5 131.1 154.4 125.1L155 121.7L158 120.3C162.9 117.9 168.6 117.2 174 118.3C177.1 119 182.5 121.5 184.8 123.6L186.6 125.2L183.5 128.1C176.1 135 174.8 145.8 180.3 153.9C189.4 167.1 208.6 165.6 215.6 151C217 148.1 217 147.6 217 142.8C217 138 216.9 137.5 215.5 134.5C212 127.2 204.9 122.5 197.1 122.5C194.5 122.5 194.5 122.5 191.2 119.3C185.9 114.2 180.2 111.4 172.6 110.3C168.2 109.6 162.1 110.3 157.5 112C155.8 112.6 154.2 113 154.1 112.9C153.9 112.8 153.5 111.6 153.2 110.2C152.9 108.8 151.8 106 150.8 104L148.9 100.3L149.6 98C151.5 92.4 155.2 86.7 159.7 82.6C166.1 76.8 173.9 73.6 182.9 73.2L188.3 72.9L188 74C187.8 74.6 187.5 77.3 187.4 79.8C187.2 83.4 187.4 85.2 188 87.3C190.4 95.6 196.4 101.8 204.6 104.6C208.5 106 216.5 105.8 220.2 104.3C230.1 100.5 236 92.5 236.6 82.1C237.3 70.8 230.7 61 219.9 57.3C215.3 55.7 209.1 55.6 204.5 57.1C200.7 58.3 196.6 61 193.9 63.8L191.9 65.9L188.3 65.5C183.8 65 177.1 65.6 172.4 66.9C160.2 70.3 150.5 78.4 144.6 90.2L142.9 93.6L140.5 91.7C137 89 132 86.8 126.7 85.5L122.1 84.4L120.6 81.6C119.8 80 118.8 77.5 118.4 76C117.5 72.5 117.5 66 118.4 62.5C119.3 59.2 122 53.9 123.6 52.4L124.7 51.3L127.4 53.9C131.7 58.1 136.3 59.9 142.4 59.9C152.8 59.9 161.3 52.4 163 41.9C165.2 28.2 152.5 15.6 138.8 17.9C130.8 19.3 124.5 24.6 121.9 32.4C121.1 34.8 120.9 36.2 121.1 39.5L121.2 43.6L118.5 46.5C115.1 50.1 111.5 57.1 110.5 62.3C109.2 68.7 109.8 76 112.1 81.9C112.6 83.2 113 84.3 113 84.5C113 84.7 111.7 85.2 110.1 85.5C108.5 85.8 105.3 87 103.1 88.2L99.1 90.2L96.6 89.5C87.6 86.8 79.1 79.7 75 71.3C72.3 65.9 71.3 61.4 71.2 55.1C71.2 52.1 71.3 49.5 71.5 49.4C71.7 49.3 72.8 49.4 73.8 49.7C77.2 50.6 83.3 50.4 87.1 49.3C97.8 46 105 36.3 105 25.5C105 18.7 102.7 13.1 97.8 8.20001C94.1 4.40001 90.2 2.30001 85.2 1.20001C81.2 0.400005 79.1 0.400006 75.1 1.30001ZM87.2 10C91.1 11.8 93.5 14.2 95.5 18.2C97.1 21.4 97.2 22 97.2 25.6C97.2 29.2 97.1 29.8 95.5 33C93.5 37 91.3 39.2 87.2 41.2C85 42.3 84.1 42.5 80.2 42.5C76.2 42.5 75.5 42.4 73 41.1C66 37.6 62 30 63.4 22.9C64.7 16.3 69.1 11.3 75.2 9.3C78.4 8.1 84.1 8.50001 87.2 10ZM148.2 26.6C151.1 28.1 152.7 29.6 154.2 32.3C157 37.4 156.2 43.6 152.3 47.8C149.5 50.9 146.7 52.1 142.6 52.1C134.9 52.2 129.1 46.4 129.1 38.6C129.1 36 129.4 34.9 130.4 33C131.8 30.2 135.2 27.1 137.9 26.1C140.5 25 145.7 25.3 148.2 26.6ZM219.5 65.1C232.3 71.2 232.8 89 220.2 95.8C217.4 97.3 217.1 97.4 212.4 97.4C207.9 97.4 207.3 97.3 204.8 96C199.5 93.3 195.8 87.9 195.3 82C194.6 74.4 199.8 66.5 207.3 64.2C210.5 63.2 216.2 63.6 219.5 65.1ZM43 82.7C45.6 83.4 48.5 85.9 50 88.6C54.7 97 48.8 107 39.2 107C25.6 107 21.8 88.7 34.2 83.1C36.3 82.1 40.3 81.9 43 82.7ZM126.2 93C131.4 94.3 135 96.4 139.1 100.5C153.8 115.1 148.2 139.3 128.4 146.6C124.2 148.1 117.7 148.5 113.3 147.5C95.5 143.3 86.4 124.2 94.3 107.7C95.4 105.5 96.9 103.5 99.6 100.7C107 93.2 116.3 90.4 126.2 93ZM202.3 131.3C212.7 135.7 212.1 150.6 201.5 154.5C197.5 156 191.9 154.7 188.8 151.7C179 141.8 189.6 125.7 202.3 131.3ZM28.6 143.9C34.2 144.9 39 148.6 41.3 153.6C42.4 155.9 42.6 156.9 42.6 160.9C42.6 165.3 42.5 165.7 41 168.5C39.1 172 36.1 174.8 32.6 176.4C30.4 177.5 29.3 177.7 25.7 177.7C22.2 177.7 21.1 177.5 18.8 176.4C15.1 174.7 12.2 171.8 10.3 168.1C8.9 165.3 8.8 164.6 8.8 160.6C8.8 156.7 8.9 155.8 10.1 153.5C12.6 148.4 17.4 144.7 22.7 143.8C24.1 143.6 25.3 143.4 25.5 143.3C25.8 143.4 27.1 143.6 28.6 143.9ZM97.3 189.9C100.4 190.9 104.1 194.6 105.1 197.7C106.7 202.4 105.8 207.1 102.5 210.8C99.6 214.1 97.6 215 92.8 215C88.2 215 86.2 214.2 83.4 211.2C80.6 208.2 79.9 206.7 79.9 202.2C79.9 197.7 80.5 196.2 83.4 193.2C87.1 189.4 92.1 188.2 97.3 189.9ZM162.5 198.6C165.9 200.2 169.3 203.5 171.1 207.1C172.3 209.6 172.5 210.4 172.5 214.3C172.5 218.2 172.3 219.1 171.1 221.5C169.4 225 166.2 228.2 162.7 230C160.2 231.2 159.4 231.4 155.5 231.4C151.7 231.4 150.7 231.2 148.4 230.1C144.9 228.5 142 225.7 140 222.2C138.5 219.4 138.4 219 138.4 214.4C138.4 210 138.5 209.3 139.7 207.1C142.1 202.6 144.7 200.2 149.4 198.2C152.9 196.6 158.6 196.8 162.5 198.6Z" fill="url(#paint0_radial_1_3)"/>
<defs>
<radialGradient id="paint0_radial_1_3" cx="0" cy="0" r="1" gradientUnits="userSpaceOnUse" gradientTransform="translate(118.807 120) rotate(90) scale(119.389 117.844)">
<stop offset="0.171875" stop-color="#0000FF"/>
<stop offset="1" stop-color="#FF00FF"/>
</radialGradient>
</defs>
</svg>
